<?xml version="1.0" encoding="utf-8"?>
<svg xmlns="http://www.w3.org/2000/svg" xmlns:xlink="http://www.w3.org/1999/xlink" width="600" height="400" viewBox="0 0 2400 1600">
<defs>
  <clipPath id="clip830">
    <rect x="0" y="0" width="2400" height="1600"/>
  </clipPath>
</defs>
<path clip-path="url(#clip830)" d="
M0 1600 L2400 1600 L2400 0 L0 0  Z
  " fill="#ffffff" fill-rule="evenodd" fill-opacity="1"/>
<defs>
  <clipPath id="clip831">
    <rect x="480" y="0" width="1681" height="1600"/>
  </clipPath>
</defs>
<path clip-path="url(#clip830)" d="
M138.959 1486.45 L2352.76 1486.45 L2352.76 123.472 L138.959 123.472  Z
  " fill="#ffffff" fill-rule="evenodd" fill-opacity="1"/>
<defs>
  <clipPath id="clip832">
    <rect x="138" y="123" width="2215" height="1364"/>
  </clipPath>
</defs>
<polyline clip-path="url(#clip832)" style="stroke:#000000; stroke-linecap:butt; stroke-linejoin:round; stroke-width:2; stroke-opacity:0.1; fill:none" points="
  201.614,1486.45 201.614,123.472 
  "/>
<polyline clip-path="url(#clip832)" style="stroke:#000000; stroke-linecap:butt; stroke-linejoin:round; stroke-width:2; stroke-opacity:0.1; fill:none" points="
  549.695,1486.45 549.695,123.472 
  "/>
<polyline clip-path="url(#clip832)" style="stroke:#000000; stroke-linecap:butt; stroke-linejoin:round; stroke-width:2; stroke-opacity:0.1; fill:none" points="
  897.776,1486.45 897.776,123.472 
  "/>
<polyline clip-path="url(#clip832)" style="stroke:#000000; stroke-linecap:butt; stroke-linejoin:round; stroke-width:2; stroke-opacity:0.1; fill:none" points="
  1245.86,1486.45 1245.86,123.472 
  "/>
<polyline clip-path="url(#clip832)" style="stroke:#000000; stroke-linecap:butt; stroke-linejoin:round; stroke-width:2; stroke-opacity:0.1; fill:none" points="
  1593.94,1486.45 1593.94,123.472 
  "/>
<polyline clip-path="url(#clip832)" style="stroke:#000000; stroke-linecap:butt; stroke-linejoin:round; stroke-width:2; stroke-opacity:0.1; fill:none" points="
  1942.02,1486.45 1942.02,123.472 
  "/>
<polyline clip-path="url(#clip832)" style="stroke:#000000; stroke-linecap:butt; stroke-linejoin:round; stroke-width:2; stroke-opacity:0.1; fill:none" points="
  2290.1,1486.45 2290.1,123.472 
  "/>
<polyline clip-path="url(#clip830)" style="stroke:#000000; stroke-linecap:butt; stroke-linejoin:round; stroke-width:4; stroke-opacity:1; fill:none" points="
  138.959,1486.45 2352.76,1486.45 
  "/>
<polyline clip-path="url(#clip830)" style="stroke:#000000; stroke-linecap:butt; stroke-linejoin:round; stroke-width:4; stroke-opacity:1; fill:none" points="
  201.614,1486.45 201.614,1470.09 
  "/>
<polyline clip-path="url(#clip830)" style="stroke:#000000; stroke-linecap:butt; stroke-linejoin:round; stroke-width:4; stroke-opacity:1; fill:none" points="
  549.695,1486.45 549.695,1470.09 
  "/>
<polyline clip-path="url(#clip830)" style="stroke:#000000; stroke-linecap:butt; stroke-linejoin:round; stroke-width:4; stroke-opacity:1; fill:none" points="
  897.776,1486.45 897.776,1470.09 
  "/>
<polyline clip-path="url(#clip830)" style="stroke:#000000; stroke-linecap:butt; stroke-linejoin:round; stroke-width:4; stroke-opacity:1; fill:none" points="
  1245.86,1486.45 1245.86,1470.09 
  "/>
<polyline clip-path="url(#clip830)" style="stroke:#000000; stroke-linecap:butt; stroke-linejoin:round; stroke-width:4; stroke-opacity:1; fill:none" points="
  1593.94,1486.45 1593.94,1470.09 
  "/>
<polyline clip-path="url(#clip830)" style="stroke:#000000; stroke-linecap:butt; stroke-linejoin:round; stroke-width:4; stroke-opacity:1; fill:none" points="
  1942.02,1486.45 1942.02,1470.09 
  "/>
<polyline clip-path="url(#clip830)" style="stroke:#000000; stroke-linecap:butt; stroke-linejoin:round; stroke-width:4; stroke-opacity:1; fill:none" points="
  2290.1,1486.45 2290.1,1470.09 
  "/>
<path clip-path="url(#clip830)" d="M171.082 1530.29 L200.758 1530.29 L200.758 1534.23 L171.082 1534.23 L171.082 1530.29 Z" fill="#000000" fill-rule="evenodd" fill-opacity="1" /><path clip-path="url(#clip830)" d="M225.017 1528.49 Q228.373 1529.2 230.248 1531.47 Q232.146 1533.74 232.146 1537.07 Q232.146 1542.19 228.628 1544.99 Q225.109 1547.79 218.628 1547.79 Q216.452 1547.79 214.137 1547.35 Q211.845 1546.93 209.392 1546.08 L209.392 1541.56 Q211.336 1542.7 213.651 1543.28 Q215.966 1543.86 218.489 1543.86 Q222.887 1543.86 225.179 1542.12 Q227.494 1540.38 227.494 1537.07 Q227.494 1534.02 225.341 1532.31 Q223.211 1530.57 219.392 1530.57 L215.364 1530.57 L215.364 1526.73 L219.577 1526.73 Q223.026 1526.73 224.855 1525.36 Q226.683 1523.97 226.683 1521.38 Q226.683 1518.72 224.785 1517.31 Q222.91 1515.87 219.392 1515.87 Q217.47 1515.87 215.271 1516.29 Q213.072 1516.7 210.433 1517.58 L210.433 1513.42 Q213.095 1512.68 215.41 1512.31 Q217.748 1511.93 219.808 1511.93 Q225.132 1511.93 228.234 1514.37 Q231.336 1516.77 231.336 1520.89 Q231.336 1523.76 229.693 1525.75 Q228.049 1527.72 225.017 1528.49 Z" fill="#000000" fill-rule="evenodd" fill-opacity="1" /><path clip-path="url(#clip830)" d="M519.638 1530.29 L549.313 1530.29 L549.313 1534.23 L519.638 1534.23 L519.638 1530.29 Z" fill="#000000" fill-rule="evenodd" fill-opacity="1" /><path clip-path="url(#clip830)" d="M563.434 1543.18 L579.753 1543.18 L579.753 1547.12 L557.809 1547.12 L557.809 1543.18 Q560.471 1540.43 565.054 1535.8 Q569.66 1531.15 570.841 1529.81 Q573.086 1527.28 573.966 1525.55 Q574.869 1523.79 574.869 1522.1 Q574.869 1519.34 572.924 1517.61 Q571.003 1515.87 567.901 1515.87 Q565.702 1515.87 563.248 1516.63 Q560.818 1517.4 558.04 1518.95 L558.04 1514.23 Q560.864 1513.09 563.318 1512.51 Q565.772 1511.93 567.809 1511.93 Q573.179 1511.93 576.373 1514.62 Q579.568 1517.31 579.568 1521.8 Q579.568 1523.93 578.758 1525.85 Q577.971 1527.74 575.864 1530.34 Q575.285 1531.01 572.184 1534.23 Q569.082 1537.42 563.434 1543.18 Z" fill="#000000" fill-rule="evenodd" fill-opacity="1" /><path clip-path="url(#clip830)" d="M867.534 1530.29 L897.209 1530.29 L897.209 1534.23 L867.534 1534.23 L867.534 1530.29 Z" fill="#000000" fill-rule="evenodd" fill-opacity="1" /><path clip-path="url(#clip830)" d="M908.112 1543.18 L915.751 1543.18 L915.751 1516.82 L907.441 1518.49 L907.441 1514.23 L915.705 1512.56 L920.381 1512.56 L920.381 1543.18 L928.019 1543.18 L928.019 1547.12 L908.112 1547.12 L908.112 1543.18 Z" fill="#000000" fill-rule="evenodd" fill-opacity="1" /><path clip-path="url(#clip830)" d="M1245.86 1515.64 Q1242.25 1515.64 1240.42 1519.2 Q1238.61 1522.75 1238.61 1529.87 Q1238.61 1536.98 1240.42 1540.55 Q1242.25 1544.09 1245.86 1544.09 Q1249.49 1544.09 1251.3 1540.55 Q1253.13 1536.98 1253.13 1529.87 Q1253.13 1522.75 1251.3 1519.2 Q1249.49 1515.64 1245.86 1515.64 M1245.86 1511.93 Q1251.67 1511.93 1254.72 1516.54 Q1257.8 1521.12 1257.8 1529.87 Q1257.8 1538.6 1254.72 1543.21 Q1251.67 1547.79 1245.86 1547.79 Q1240.05 1547.79 1236.97 1543.21 Q1233.91 1538.6 1233.91 1529.87 Q1233.91 1521.12 1236.97 1516.54 Q1240.05 1511.93 1245.86 1511.93 Z" fill="#000000" fill-rule="evenodd" fill-opacity="1" /><path clip-path="url(#clip830)" d="M1584.32 1543.18 L1591.96 1543.18 L1591.96 1516.82 L1583.65 1518.49 L1583.65 1514.23 L1591.91 1512.56 L1596.59 1512.56 L1596.59 1543.18 L1604.23 1543.18 L1604.23 1547.12 L1584.32 1547.12 L1584.32 1543.18 Z" fill="#000000" fill-rule="evenodd" fill-opacity="1" /><path clip-path="url(#clip830)" d="M1936.67 1543.18 L1952.99 1543.18 L1952.99 1547.12 L1931.05 1547.12 L1931.05 1543.18 Q1933.71 1540.43 1938.29 1535.8 Q1942.9 1531.15 1944.08 1529.81 Q1946.33 1527.28 1947.21 1525.55 Q1948.11 1523.79 1948.11 1522.1 Q1948.11 1519.34 1946.16 1517.61 Q1944.24 1515.87 1941.14 1515.87 Q1938.94 1515.87 1936.49 1516.63 Q1934.06 1517.4 1931.28 1518.95 L1931.28 1514.23 Q1934.1 1513.09 1936.56 1512.51 Q1939.01 1511.93 1941.05 1511.93 Q1946.42 1511.93 1949.61 1514.62 Q1952.81 1517.31 1952.81 1521.8 Q1952.81 1523.93 1952 1525.85 Q1951.21 1527.74 1949.1 1530.34 Q1948.52 1531.01 1945.42 1534.23 Q1942.32 1537.42 1936.67 1543.18 Z" fill="#000000" fill-rule="evenodd" fill-opacity="1" /><path clip-path="url(#clip830)" d="M2294.35 1528.49 Q2297.71 1529.2 2299.58 1531.47 Q2301.48 1533.74 2301.48 1537.07 Q2301.48 1542.19 2297.96 1544.99 Q2294.44 1547.79 2287.96 1547.79 Q2285.78 1547.79 2283.47 1547.35 Q2281.18 1546.93 2278.72 1546.08 L2278.72 1541.56 Q2280.67 1542.7 2282.98 1543.28 Q2285.3 1543.86 2287.82 1543.86 Q2292.22 1543.86 2294.51 1542.12 Q2296.83 1540.38 2296.83 1537.07 Q2296.83 1534.02 2294.67 1532.31 Q2292.54 1530.57 2288.72 1530.57 L2284.7 1530.57 L2284.7 1526.73 L2288.91 1526.73 Q2292.36 1526.73 2294.19 1525.36 Q2296.02 1523.97 2296.02 1521.38 Q2296.02 1518.72 2294.12 1517.31 Q2292.24 1515.87 2288.72 1515.87 Q2286.8 1515.87 2284.6 1516.29 Q2282.4 1516.7 2279.77 1517.58 L2279.77 1513.42 Q2282.43 1512.68 2284.74 1512.31 Q2287.08 1511.93 2289.14 1511.93 Q2294.46 1511.93 2297.57 1514.37 Q2300.67 1516.77 2300.67 1520.89 Q2300.67 1523.76 2299.02 1525.75 Q2297.38 1527.72 2294.35 1528.49 Z" fill="#000000" fill-rule="evenodd" fill-opacity="1" /><polyline clip-path="url(#clip832)" style="stroke:#000000; stroke-linecap:butt; stroke-linejoin:round; stroke-width:2; stroke-opacity:0.1; fill:none" points="
  138.959,1448.28 2352.76,1448.28 
  "/>
<polyline clip-path="url(#clip832)" style="stroke:#000000; stroke-linecap:butt; stroke-linejoin:round; stroke-width:2; stroke-opacity:0.1; fill:none" points="
  138.959,1046.34 2352.76,1046.34 
  "/>
<polyline clip-path="url(#clip832)" style="stroke:#000000; stroke-linecap:butt; stroke-linejoin:round; stroke-width:2; stroke-opacity:0.1; fill:none" points="
  138.959,644.386 2352.76,644.386 
  "/>
<polyline clip-path="url(#clip832)" style="stroke:#000000; stroke-linecap:butt; stroke-linejoin:round; stroke-width:2; stroke-opacity:0.1; fill:none" points="
  138.959,242.437 2352.76,242.437 
  "/>
<polyline clip-path="url(#clip830)" style="stroke:#000000; stroke-linecap:butt; stroke-linejoin:round; stroke-width:4; stroke-opacity:1; fill:none" points="
  138.959,1486.45 138.959,123.472 
  "/>
<polyline clip-path="url(#clip830)" style="stroke:#000000; stroke-linecap:butt; stroke-linejoin:round; stroke-width:4; stroke-opacity:1; fill:none" points="
  138.959,1448.28 165.525,1448.28 
  "/>
<polyline clip-path="url(#clip830)" style="stroke:#000000; stroke-linecap:butt; stroke-linejoin:round; stroke-width:4; stroke-opacity:1; fill:none" points="
  138.959,1046.34 165.525,1046.34 
  "/>
<polyline clip-path="url(#clip830)" style="stroke:#000000; stroke-linecap:butt; stroke-linejoin:round; stroke-width:4; stroke-opacity:1; fill:none" points="
  138.959,644.386 165.525,644.386 
  "/>
<polyline clip-path="url(#clip830)" style="stroke:#000000; stroke-linecap:butt; stroke-linejoin:round; stroke-width:4; stroke-opacity:1; fill:none" points="
  138.959,242.437 165.525,242.437 
  "/>
<path clip-path="url(#clip830)" d="M91.0151 1434.08 Q87.404 1434.08 85.5753 1437.65 Q83.7697 1441.19 83.7697 1448.32 Q83.7697 1455.43 85.5753 1458.99 Q87.404 1462.53 91.0151 1462.53 Q94.6493 1462.53 96.4548 1458.99 Q98.2835 1455.43 98.2835 1448.32 Q98.2835 1441.19 96.4548 1437.65 Q94.6493 1434.08 91.0151 1434.08 M91.0151 1430.38 Q96.8252 1430.38 99.8808 1434.99 Q102.959 1439.57 102.959 1448.32 Q102.959 1457.05 99.8808 1461.65 Q96.8252 1466.24 91.0151 1466.24 Q85.2049 1466.24 82.1262 1461.65 Q79.0707 1457.05 79.0707 1448.32 Q79.0707 1439.57 82.1262 1434.99 Q85.2049 1430.38 91.0151 1430.38 Z" fill="#000000" fill-rule="evenodd" fill-opacity="1" /><path clip-path="url(#clip830)" d="M82.0568 1029.06 L100.413 1029.06 L100.413 1032.99 L86.3392 1032.99 L86.3392 1041.46 Q87.3577 1041.12 88.3762 1040.95 Q89.3947 1040.77 90.4132 1040.77 Q96.2002 1040.77 99.5798 1043.94 Q102.959 1047.11 102.959 1052.53 Q102.959 1058.11 99.4872 1061.21 Q96.015 1064.29 89.6956 1064.29 Q87.5197 1064.29 85.2512 1063.92 Q83.0058 1063.55 80.5984 1062.81 L80.5984 1058.11 Q82.6818 1059.24 84.904 1059.8 Q87.1262 1060.35 89.603 1060.35 Q93.6076 1060.35 95.9456 1058.25 Q98.2835 1056.14 98.2835 1052.53 Q98.2835 1048.92 95.9456 1046.81 Q93.6076 1044.7 89.603 1044.7 Q87.728 1044.7 85.8531 1045.12 Q84.0012 1045.54 82.0568 1046.42 L82.0568 1029.06 Z" fill="#000000" fill-rule="evenodd" fill-opacity="1" /><path clip-path="url(#clip830)" d="M51.6634 657.731 L59.3023 657.731 L59.3023 631.365 L50.9921 633.032 L50.9921 628.773 L59.256 627.106 L63.9319 627.106 L63.9319 657.731 L71.5707 657.731 L71.5707 661.666 L51.6634 661.666 L51.6634 657.731 Z" fill="#000000" fill-rule="evenodd" fill-opacity="1" /><path clip-path="url(#clip830)" d="M91.0151 630.185 Q87.404 630.185 85.5753 633.75 Q83.7697 637.291 83.7697 644.421 Q83.7697 651.527 85.5753 655.092 Q87.404 658.634 91.0151 658.634 Q94.6493 658.634 96.4548 655.092 Q98.2835 651.527 98.2835 644.421 Q98.2835 637.291 96.4548 633.75 Q94.6493 630.185 91.0151 630.185 M91.0151 626.481 Q96.8252 626.481 99.8808 631.088 Q102.959 635.671 102.959 644.421 Q102.959 653.148 99.8808 657.754 Q96.8252 662.337 91.0151 662.337 Q85.2049 662.337 82.1262 657.754 Q79.0707 653.148 79.0707 644.421 Q79.0707 635.671 82.1262 631.088 Q85.2049 626.481 91.0151 626.481 Z" fill="#000000" fill-rule="evenodd" fill-opacity="1" /><path clip-path="url(#clip830)" d="M52.6588 255.782 L60.2976 255.782 L60.2976 229.416 L51.9875 231.083 L51.9875 226.823 L60.2513 225.157 L64.9272 225.157 L64.9272 255.782 L72.5661 255.782 L72.5661 259.717 L52.6588 259.717 L52.6588 255.782 Z" fill="#000000" fill-rule="evenodd" fill-opacity="1" /><path clip-path="url(#clip830)" d="M82.0568 225.157 L100.413 225.157 L100.413 229.092 L86.3392 229.092 L86.3392 237.564 Q87.3577 237.217 88.3762 237.055 Q89.3947 236.87 90.4132 236.87 Q96.2002 236.87 99.5798 240.041 Q102.959 243.212 102.959 248.629 Q102.959 254.208 99.4872 257.309 Q96.015 260.388 89.6956 260.388 Q87.5197 260.388 85.2512 260.018 Q83.0058 259.647 80.5984 258.907 L80.5984 254.208 Q82.6818 255.342 84.904 255.897 Q87.1262 256.453 89.603 256.453 Q93.6076 256.453 95.9456 254.346 Q98.2835 252.24 98.2835 248.629 Q98.2835 245.018 95.9456 242.911 Q93.6076 240.805 89.603 240.805 Q87.728 240.805 85.8531 241.222 Q84.0012 241.638 82.0568 242.518 L82.0568 225.157 Z" fill="#000000" fill-rule="evenodd" fill-opacity="1" /><path clip-path="url(#clip830)" d="M955.388 12.096 L993.628 12.096 L993.628 18.9825 L963.57 18.9825 L963.57 36.8875 L992.372 36.8875 L992.372 43.7741 L963.57 43.7741 L963.57 65.6895 L994.357 65.6895 L994.357 72.576 L955.388 72.576 L955.388 12.096 Z" fill="#000000" fill-rule="evenodd" fill-opacity="1" /><path clip-path="url(#clip830)" d="M1045.2 27.2059 L1028.79 49.2833 L1046.05 72.576 L1037.26 72.576 L1024.05 54.752 L1010.84 72.576 L1002.05 72.576 L1019.68 48.8377 L1003.55 27.2059 L1012.34 27.2059 L1024.37 43.369 L1036.41 27.2059 L1045.2 27.2059 Z" fill="#000000" fill-rule="evenodd" fill-opacity="1" /><path clip-path="url(#clip830)" d="M1077.2 49.7694 Q1068.16 49.7694 1064.68 51.8354 Q1061.2 53.9013 1061.2 58.8839 Q1061.2 62.8538 1063.79 65.2034 Q1066.42 67.5124 1070.92 67.5124 Q1077.12 67.5124 1080.84 63.1374 Q1084.61 58.7219 1084.61 51.4303 L1084.61 49.7694 L1077.2 49.7694 M1092.07 46.6907 L1092.07 72.576 L1084.61 72.576 L1084.61 65.6895 Q1082.06 69.8214 1078.25 71.8063 Q1074.44 73.7508 1068.93 73.7508 Q1061.97 73.7508 1057.83 69.8619 Q1053.74 65.9325 1053.74 59.3701 Q1053.74 51.7138 1058.85 47.825 Q1063.99 43.9361 1074.16 43.9361 L1084.61 43.9361 L1084.61 43.2069 Q1084.61 38.0623 1081.21 35.2672 Q1077.85 32.4315 1071.73 32.4315 Q1067.84 32.4315 1064.15 33.3632 Q1060.47 34.295 1057.07 36.1584 L1057.07 29.2718 Q1061.16 27.692 1065.01 26.9223 Q1068.85 26.1121 1072.5 26.1121 Q1082.34 26.1121 1087.2 31.2163 Q1092.07 36.3204 1092.07 46.6907 Z" fill="#000000" fill-rule="evenodd" fill-opacity="1" /><path clip-path="url(#clip830)" d="M1142.74 35.9153 Q1145.54 30.8922 1149.43 28.5022 Q1153.31 26.1121 1158.58 26.1121 Q1165.67 26.1121 1169.52 31.0947 Q1173.37 36.0368 1173.37 45.1919 L1173.37 72.576 L1165.87 72.576 L1165.87 45.4349 Q1165.87 38.913 1163.56 35.7533 Q1161.25 32.5936 1156.51 32.5936 Q1150.72 32.5936 1147.36 36.4419 Q1144 40.2903 1144 46.9338 L1144 72.576 L1136.5 72.576 L1136.5 45.4349 Q1136.5 38.8725 1134.19 35.7533 Q1131.89 32.5936 1127.06 32.5936 Q1121.35 32.5936 1117.99 36.4824 Q1114.63 40.3308 1114.63 46.9338 L1114.63 72.576 L1107.13 72.576 L1107.13 27.2059 L1114.63 27.2059 L1114.63 34.2544 Q1117.18 30.082 1120.75 28.0971 Q1124.31 26.1121 1129.21 26.1121 Q1134.15 26.1121 1137.6 28.6237 Q1141.08 31.1352 1142.74 35.9153 Z" fill="#000000" fill-rule="evenodd" fill-opacity="1" /><path clip-path="url(#clip830)" d="M1195.44 65.7705 L1195.44 89.8329 L1187.95 89.8329 L1187.95 27.2059 L1195.44 27.2059 L1195.44 34.0924 Q1197.79 30.0415 1201.36 28.0971 Q1204.96 26.1121 1209.95 26.1121 Q1218.21 26.1121 1223.35 32.6746 Q1228.54 39.2371 1228.54 49.9314 Q1228.54 60.6258 1223.35 67.1883 Q1218.21 73.7508 1209.95 73.7508 Q1204.96 73.7508 1201.36 71.8063 Q1197.79 69.8214 1195.44 65.7705 M1220.8 49.9314 Q1220.8 41.7081 1217.4 37.0496 Q1214.04 32.3505 1208.12 32.3505 Q1202.21 32.3505 1198.81 37.0496 Q1195.44 41.7081 1195.44 49.9314 Q1195.44 58.1548 1198.81 62.8538 Q1202.21 67.5124 1208.12 67.5124 Q1214.04 67.5124 1217.4 62.8538 Q1220.8 58.1548 1220.8 49.9314 Z" fill="#000000" fill-rule="evenodd" fill-opacity="1" /><path clip-path="url(#clip830)" d="M1240.9 9.54393 L1248.35 9.54393 L1248.35 72.576 L1240.9 72.576 L1240.9 9.54393 Z" fill="#000000" fill-rule="evenodd" fill-opacity="1" /><path clip-path="url(#clip830)" d="M1302.75 48.0275 L1302.75 51.6733 L1268.48 51.6733 Q1268.97 59.3701 1273.1 63.421 Q1277.27 67.4314 1284.69 67.4314 Q1288.98 67.4314 1292.99 66.3781 Q1297.04 65.3249 1301.01 63.2184 L1301.01 70.267 Q1297 71.9684 1292.79 72.8596 Q1288.57 73.7508 1284.24 73.7508 Q1273.38 73.7508 1267.02 67.4314 Q1260.7 61.1119 1260.7 50.3365 Q1260.7 39.1965 1266.7 32.6746 Q1272.74 26.1121 1282.94 26.1121 Q1292.1 26.1121 1297.41 32.0264 Q1302.75 37.9003 1302.75 48.0275 M1295.3 45.84 Q1295.22 39.7232 1291.86 36.0774 Q1288.53 32.4315 1283.02 32.4315 Q1276.79 32.4315 1273.02 35.9558 Q1269.29 39.4801 1268.73 45.8805 L1295.3 45.84 Z" fill="#000000" fill-rule="evenodd" fill-opacity="1" /><path clip-path="url(#clip830)" d="M1343.83 65.6895 L1357.2 65.6895 L1357.2 19.5497 L1342.65 22.4663 L1342.65 15.0127 L1357.12 12.096 L1365.3 12.096 L1365.3 65.6895 L1378.67 65.6895 L1378.67 72.576 L1343.83 72.576 L1343.83 65.6895 Z" fill="#000000" fill-rule="evenodd" fill-opacity="1" /><path clip-path="url(#clip830)" d="M1395.19 62.2867 L1403.74 62.2867 L1403.74 72.576 L1395.19 72.576 L1395.19 62.2867 Z" fill="#000000" fill-rule="evenodd" fill-opacity="1" /><path clip-path="url(#clip830)" d="M1421.65 12.096 L1453.77 12.096 L1453.77 18.9825 L1429.14 18.9825 L1429.14 33.8088 Q1430.92 33.2012 1432.71 32.9176 Q1434.49 32.5936 1436.27 32.5936 Q1446.4 32.5936 1452.31 38.1433 Q1458.23 43.6931 1458.23 53.1722 Q1458.23 62.9348 1452.15 68.3631 Q1446.07 73.7508 1435.01 73.7508 Q1431.21 73.7508 1427.24 73.1026 Q1423.31 72.4545 1419.09 71.1582 L1419.09 62.9348 Q1422.74 64.9198 1426.63 65.892 Q1430.52 66.8642 1434.85 66.8642 Q1441.86 66.8642 1445.95 63.1779 Q1450.04 59.4916 1450.04 53.1722 Q1450.04 46.8528 1445.95 43.1664 Q1441.86 39.4801 1434.85 39.4801 Q1431.57 39.4801 1428.29 40.2093 Q1425.05 40.9384 1421.65 42.4778 L1421.65 12.096 Z" fill="#000000" fill-rule="evenodd" fill-opacity="1" /><path clip-path="url(#clip830)" d="M1474.35 62.2867 L1482.9 62.2867 L1482.9 72.576 L1474.35 72.576 L1474.35 62.2867 Z" fill="#000000" fill-rule="evenodd" fill-opacity="1" /><path clip-path="url(#clip830)" d="M1507.77 65.6895 L1536.33 65.6895 L1536.33 72.576 L1497.93 72.576 L1497.93 65.6895 Q1502.58 60.8689 1510.6 52.7671 Q1518.67 44.6248 1520.73 42.2752 Q1524.66 37.8598 1526.2 34.8216 Q1527.78 31.7429 1527.78 28.7857 Q1527.78 23.9651 1524.38 20.927 Q1521.02 17.8888 1515.59 17.8888 Q1511.74 17.8888 1507.44 19.2256 Q1503.19 20.5624 1498.33 23.2765 L1498.33 15.0127 Q1503.27 13.0277 1507.57 12.015 Q1511.86 11.0023 1515.43 11.0023 Q1524.82 11.0023 1530.41 15.7013 Q1536 20.4004 1536 28.2591 Q1536 31.9859 1534.59 35.3482 Q1533.21 38.6699 1529.52 43.2069 Q1528.51 44.3817 1523.08 50.0125 Q1517.65 55.6027 1507.77 65.6895 Z" fill="#000000" fill-rule="evenodd" fill-opacity="1" /><polyline clip-path="url(#clip832)" style="stroke:#009af9; stroke-linecap:butt; stroke-linejoin:round; stroke-width:4; stroke-opacity:1; fill:none" points="
  201.614,1126.73 211.812,1136.08 222.01,1145.29 316.304,1223.95 410.598,1290.81 467.265,1325.31 523.932,1355.55 571.843,1377.8 619.755,1397 723.844,1428.21 
  819.806,1444.25 922.687,1447.87 1041.88,1434.51 1147.81,1406.8 1240.7,1370.26 1341.98,1317.37 1443.86,1250.43 1556.49,1160.39 1663.67,1059.08 1775.1,937.591 
  1868.91,822.545 1926.17,746.577 1983.43,666.257 2037.26,586.787 2091.09,503.472 2177.32,361.98 2263.56,210.62 2276.83,186.451 2290.1,162.047 
  "/>
<polyline clip-path="url(#clip832)" style="stroke:#e26f46; stroke-linecap:butt; stroke-linejoin:round; stroke-width:4; stroke-opacity:1; fill:none" points="
  201.614,1438.24 222.01,1437.82 410.598,1433.05 523.932,1429.19 619.755,1425.18 723.844,1419.86 819.806,1413.87 922.687,1406.05 1041.88,1394.73 1147.81,1382.15 
  1240.7,1368.72 1341.98,1350.94 1443.86,1329.04 1556.49,1299.06 1663.67,1263.56 1719.38,1241.88 1775.1,1217.66 1822,1195.08 1868.91,1170.29 1926.17,1136.72 
  1983.43,1099.09 2037.26,1059.58 2091.09,1015.59 2134.2,976.801 2177.32,934.529 2220.44,888.467 2263.56,838.276 2270.19,830.162 2276.83,821.94 2283.47,813.608 
  2290.1,805.166 
  "/>
<path clip-path="url(#clip830)" d="
M1707.5 357.916 L2278.96 357.916 L2278.96 168.905 L1707.5 168.905  Z
  " fill="#ffffff" fill-rule="evenodd" fill-opacity="1"/>
<polyline clip-path="url(#clip830)" style="stroke:#000000; stroke-linecap:butt; stroke-linejoin:round; stroke-width:4; stroke-opacity:1; fill:none" points="
  1707.5,357.916 2278.96,357.916 2278.96,168.905 1707.5,168.905 1707.5,357.916 
  "/>
<polyline clip-path="url(#clip830)" style="stroke:#009af9; stroke-linecap:butt; stroke-linejoin:round; stroke-width:4; stroke-opacity:1; fill:none" points="
  1732.1,231.909 1879.68,231.909 
  "/>
<path clip-path="url(#clip830)" d="M1938.34 220.22 L1937.38 228.511 Q1937.31 229.261 1937.19 229.495 Q1937.07 229.706 1936.7 229.706 Q1936.14 229.706 1936.14 229.144 Q1936.14 228.909 1936.23 228.277 Q1936.37 226.989 1936.37 225.677 Q1936.37 224.202 1936.09 223.288 Q1935.83 222.351 1935.08 221.672 Q1934.33 220.993 1932.95 220.712 Q1931.57 220.407 1929.37 220.407 L1923.04 220.407 Q1921.5 220.407 1921.12 220.688 Q1920.77 220.969 1920.44 222.281 L1917.38 234.461 L1921.73 234.461 Q1924.78 234.461 1925.97 233.57 Q1927.17 232.68 1927.92 229.846 Q1928.03 229.401 1928.08 229.237 Q1928.15 229.05 1928.27 228.956 Q1928.41 228.839 1928.64 228.839 Q1928.85 228.839 1928.99 228.98 Q1929.13 229.097 1929.18 229.237 L1929.23 229.378 Q1929.23 229.612 1929.09 230.151 L1926.44 240.55 Q1926.25 241.253 1926.14 241.417 Q1926.04 241.558 1925.71 241.558 Q1925.48 241.558 1925.32 241.394 Q1925.15 241.23 1925.15 240.972 Q1925.2 240.691 1925.29 240.457 Q1925.62 239.028 1925.62 238.114 Q1925.62 237.529 1925.5 237.178 Q1925.39 236.826 1924.99 236.522 Q1924.59 236.217 1923.77 236.077 Q1922.95 235.936 1921.64 235.936 L1917 235.936 L1914.03 247.882 L1913.82 248.982 Q1913.82 249.474 1914.07 249.662 Q1914.35 249.849 1915.36 249.943 Q1916.86 250.06 1917.84 250.06 Q1919.06 250.06 1919.2 250.107 Q1919.48 250.247 1919.48 250.622 Q1919.48 251.044 1919.3 251.278 Q1919.11 251.489 1918.95 251.512 Q1918.78 251.536 1918.48 251.536 L1911.33 251.395 L1905.01 251.536 Q1904.28 251.536 1904.28 250.95 Q1904.28 250.505 1904.47 250.318 Q1904.66 250.107 1904.87 250.083 Q1905.08 250.06 1905.62 250.06 Q1906.79 250.06 1907.49 249.99 Q1908.19 249.919 1908.64 249.826 Q1909.11 249.709 1909.34 249.381 Q1909.6 249.053 1909.72 248.772 Q1909.83 248.467 1910 247.788 L1916.32 222.421 Q1916.56 221.555 1916.56 221.274 Q1916.56 220.969 1916.35 220.782 Q1916.16 220.594 1915.64 220.524 Q1915.13 220.431 1914.71 220.431 Q1914.31 220.407 1913.44 220.407 Q1912.88 220.407 1912.64 220.384 Q1912.43 220.36 1912.27 220.243 Q1912.11 220.126 1912.11 219.868 Q1912.11 219.213 1912.39 219.072 Q1912.69 218.908 1913.53 218.908 L1937.05 218.908 Q1937.99 218.908 1938.2 219.119 Q1938.43 219.306 1938.34 220.22 Z" fill="#000000" fill-rule="evenodd" fill-opacity="1" /><path clip-path="url(#clip830)" d="M1934.81 239.543 Q1934.81 231.439 1937.83 224.904 Q1939.11 222.164 1940.92 219.868 Q1942.72 217.573 1943.92 216.566 Q1945.11 215.559 1945.44 215.559 Q1945.91 215.559 1945.93 216.027 Q1945.93 216.261 1945.3 216.847 Q1937.57 224.717 1937.59 239.543 Q1937.59 254.416 1945.11 261.982 Q1945.93 262.802 1945.93 263.059 Q1945.93 263.528 1945.44 263.528 Q1945.11 263.528 1943.96 262.567 Q1942.82 261.607 1941.04 259.405 Q1939.26 257.204 1937.97 254.51 Q1934.81 247.975 1934.81 239.543 Z" fill="#000000" fill-rule="evenodd" fill-opacity="1" /><path clip-path="url(#clip830)" d="M1977.11 233.5 Q1977.11 234.812 1976.29 235.561 Q1975.47 236.287 1974.54 236.287 Q1973.65 236.287 1973.18 235.772 Q1972.71 235.257 1972.71 234.601 Q1972.71 233.711 1973.36 232.938 Q1974.02 232.165 1975 232.001 Q1974.04 231.392 1972.61 231.392 Q1971.68 231.392 1970.86 231.884 Q1970.06 232.376 1969.57 233.008 Q1969.1 233.641 1968.68 234.554 Q1968.28 235.444 1968.12 235.983 Q1967.98 236.498 1967.86 237.06 L1966.22 243.619 Q1965.42 246.734 1965.42 247.835 Q1965.42 249.193 1966.08 250.107 Q1966.74 250.997 1968.05 250.997 Q1968.56 250.997 1969.15 250.856 Q1969.73 250.692 1970.48 250.271 Q1971.26 249.826 1971.94 249.17 Q1972.64 248.491 1973.32 247.343 Q1974 246.195 1974.44 244.72 Q1974.58 244.204 1975.05 244.204 Q1975.64 244.204 1975.64 244.673 Q1975.64 245.071 1975.31 245.914 Q1975 246.734 1974.32 247.811 Q1973.67 248.865 1972.8 249.826 Q1971.94 250.763 1970.65 251.418 Q1969.36 252.074 1967.95 252.074 Q1965.94 252.074 1964.6 250.997 Q1963.27 249.919 1962.78 248.42 Q1962.66 248.631 1962.5 248.912 Q1962.33 249.193 1961.84 249.826 Q1961.37 250.435 1960.83 250.903 Q1960.29 251.348 1959.45 251.699 Q1958.63 252.074 1957.74 252.074 Q1956.62 252.074 1955.61 251.746 Q1954.63 251.418 1953.92 250.669 Q1953.22 249.919 1953.22 248.889 Q1953.22 247.741 1953.99 246.945 Q1954.79 246.125 1955.87 246.125 Q1956.55 246.125 1957.09 246.523 Q1957.65 246.921 1957.65 247.788 Q1957.65 248.748 1956.99 249.474 Q1956.34 250.2 1955.4 250.388 Q1956.36 250.997 1957.79 250.997 Q1959.33 250.997 1960.55 249.638 Q1961.77 248.28 1962.36 246.008 Q1963.81 240.55 1964.37 238.114 Q1964.93 235.655 1964.93 234.601 Q1964.93 233.617 1964.67 232.938 Q1964.42 232.259 1963.97 231.954 Q1963.55 231.626 1963.15 231.509 Q1962.78 231.392 1962.36 231.392 Q1961.65 231.392 1960.86 231.673 Q1960.08 231.954 1959.15 232.61 Q1958.23 233.243 1957.37 234.554 Q1956.5 235.866 1955.91 237.669 Q1955.8 238.208 1955.28 238.208 Q1954.72 238.185 1954.72 237.716 Q1954.72 237.318 1955.02 236.498 Q1955.35 235.655 1956.01 234.601 Q1956.69 233.547 1957.55 232.61 Q1958.44 231.65 1959.73 230.994 Q1961.04 230.338 1962.45 230.338 Q1963.08 230.338 1963.69 230.479 Q1964.32 230.596 1965.07 230.947 Q1965.85 231.299 1966.52 232.071 Q1967.2 232.844 1967.63 233.969 Q1967.91 233.43 1968.28 232.915 Q1968.68 232.399 1969.29 231.767 Q1969.92 231.111 1970.79 230.736 Q1971.68 230.338 1972.66 230.338 Q1973.62 230.338 1974.56 230.596 Q1975.5 230.83 1976.29 231.603 Q1977.11 232.353 1977.11 233.5 Z" fill="#000000" fill-rule="evenodd" fill-opacity="1" /><path clip-path="url(#clip830)" d="M1980.38 263.059 Q1980.38 262.825 1980.99 262.24 Q1988.72 254.37 1988.72 239.543 Q1988.72 224.67 1981.29 217.151 Q1980.38 216.285 1980.38 216.027 Q1980.38 215.559 1980.85 215.559 Q1981.18 215.559 1982.32 216.519 Q1983.5 217.479 1985.25 219.681 Q1987.03 221.883 1988.34 224.576 Q1991.51 231.111 1991.51 239.543 Q1991.51 247.647 1988.48 254.182 Q1987.2 256.923 1985.39 259.218 Q1983.59 261.513 1982.39 262.521 Q1981.2 263.528 1980.85 263.528 Q1980.38 263.528 1980.38 263.059 Z" fill="#000000" fill-rule="evenodd" fill-opacity="1" /><path clip-path="url(#clip830)" d="M2012.1 244.251 Q2012.15 243.666 2013.06 243.666 L2042.46 243.666 Q2043.84 243.666 2043.86 244.204 Q2043.86 244.79 2042.55 244.766 L2013.39 244.766 Q2012.1 244.79 2012.1 244.251 M2012.1 234.882 Q2012.1 234.297 2013.11 234.32 L2042.41 234.32 Q2043.84 234.32 2043.86 234.882 Q2043.86 235.421 2042.64 235.421 L2013.06 235.421 Q2012.1 235.421 2012.1 234.882 Z" fill="#000000" fill-rule="evenodd" fill-opacity="1" /><path clip-path="url(#clip830)" d="M2062.35 239.543 Q2062.35 231.439 2065.37 224.904 Q2066.66 222.164 2068.47 219.868 Q2070.27 217.573 2071.46 216.566 Q2072.66 215.559 2072.99 215.559 Q2073.45 215.559 2073.48 216.027 Q2073.48 216.261 2072.85 216.847 Q2065.12 224.717 2065.14 239.543 Q2065.14 254.416 2072.66 261.982 Q2073.48 262.802 2073.48 263.059 Q2073.48 263.528 2072.99 263.528 Q2072.66 263.528 2071.51 262.567 Q2070.36 261.607 2068.58 259.405 Q2066.8 257.204 2065.51 254.51 Q2062.35 247.975 2062.35 239.543 Z" fill="#000000" fill-rule="evenodd" fill-opacity="1" /><path clip-path="url(#clip830)" d="M2104.66 233.5 Q2104.66 234.812 2103.84 235.561 Q2103.02 236.287 2102.08 236.287 Q2101.19 236.287 2100.72 235.772 Q2100.26 235.257 2100.26 234.601 Q2100.26 233.711 2100.91 232.938 Q2101.57 232.165 2102.55 232.001 Q2101.59 231.392 2100.16 231.392 Q2099.22 231.392 2098.4 231.884 Q2097.61 232.376 2097.12 233.008 Q2096.65 233.641 2096.23 234.554 Q2095.83 235.444 2095.66 235.983 Q2095.52 236.498 2095.41 237.06 L2093.77 243.619 Q2092.97 246.734 2092.97 247.835 Q2092.97 249.193 2093.63 250.107 Q2094.28 250.997 2095.59 250.997 Q2096.11 250.997 2096.69 250.856 Q2097.28 250.692 2098.03 250.271 Q2098.8 249.826 2099.48 249.17 Q2100.18 248.491 2100.86 247.343 Q2101.54 246.195 2101.99 244.72 Q2102.13 244.204 2102.6 244.204 Q2103.18 244.204 2103.18 244.673 Q2103.18 245.071 2102.85 245.914 Q2102.55 246.734 2101.87 247.811 Q2101.22 248.865 2100.35 249.826 Q2099.48 250.763 2098.19 251.418 Q2096.91 252.074 2095.5 252.074 Q2093.49 252.074 2092.15 250.997 Q2090.82 249.919 2090.32 248.42 Q2090.21 248.631 2090.04 248.912 Q2089.88 249.193 2089.39 249.826 Q2088.92 250.435 2088.38 250.903 Q2087.84 251.348 2087 251.699 Q2086.18 252.074 2085.29 252.074 Q2084.16 252.074 2083.16 251.746 Q2082.17 251.418 2081.47 250.669 Q2080.77 249.919 2080.77 248.889 Q2080.77 247.741 2081.54 246.945 Q2082.34 246.125 2083.41 246.125 Q2084.09 246.125 2084.63 246.523 Q2085.19 246.921 2085.19 247.788 Q2085.19 248.748 2084.54 249.474 Q2083.88 250.2 2082.95 250.388 Q2083.91 250.997 2085.33 250.997 Q2086.88 250.997 2088.1 249.638 Q2089.32 248.28 2089.9 246.008 Q2091.35 240.55 2091.92 238.114 Q2092.48 235.655 2092.48 234.601 Q2092.48 233.617 2092.22 232.938 Q2091.96 232.259 2091.52 231.954 Q2091.1 231.626 2090.7 231.509 Q2090.32 231.392 2089.9 231.392 Q2089.2 231.392 2088.4 231.673 Q2087.63 231.954 2086.69 232.61 Q2085.78 233.243 2084.91 234.554 Q2084.05 235.866 2083.46 237.669 Q2083.34 238.208 2082.83 238.208 Q2082.27 238.185 2082.27 237.716 Q2082.27 237.318 2082.57 236.498 Q2082.9 235.655 2083.55 234.601 Q2084.23 233.547 2085.1 232.61 Q2085.99 231.65 2087.28 230.994 Q2088.59 230.338 2090 230.338 Q2090.63 230.338 2091.24 230.479 Q2091.87 230.596 2092.62 230.947 Q2093.39 231.299 2094.07 232.071 Q2094.75 232.844 2095.17 233.969 Q2095.45 233.43 2095.83 232.915 Q2096.23 232.399 2096.84 231.767 Q2097.47 231.111 2098.33 230.736 Q2099.22 230.338 2100.21 230.338 Q2101.17 230.338 2102.11 230.596 Q2103.04 230.83 2103.84 231.603 Q2104.66 232.353 2104.66 233.5 Z" fill="#000000" fill-rule="evenodd" fill-opacity="1" /><path clip-path="url(#clip830)" d="M2122.33 240.129 Q2121.23 240.129 2121.23 239.543 Q2121.23 238.958 2122.38 238.958 Q2122.52 238.958 2122.75 238.981 Q2123.01 239.005 2123.06 239.005 L2136.57 239.005 L2136.57 225.443 Q2136.57 225.396 2136.55 225.185 Q2136.53 224.951 2136.53 224.811 Q2136.53 223.663 2137.09 223.663 Q2137.67 223.663 2137.67 224.811 L2137.67 239.005 L2151.21 239.005 Q2151.26 239.005 2151.49 238.981 Q2151.73 238.958 2151.87 238.958 Q2152.97 238.958 2152.97 239.543 Q2152.99 240.129 2151.82 240.129 Q2151.68 240.129 2151.47 240.105 Q2151.26 240.082 2151.21 240.082 L2137.67 240.082 L2137.67 254.323 Q2137.67 255.424 2137.09 255.424 Q2136.53 255.424 2136.53 254.276 Q2136.53 254.135 2136.55 253.901 Q2136.57 253.69 2136.57 253.644 L2136.57 240.082 L2123.06 240.082 Q2123.01 240.082 2122.73 240.105 Q2122.47 240.129 2122.33 240.129 Z" fill="#000000" fill-rule="evenodd" fill-opacity="1" /><path clip-path="url(#clip830)" d="M2171.48 224.155 L2171.48 222.656 Q2177.25 222.656 2180.22 219.587 Q2181.04 219.587 2181.18 219.775 Q2181.32 219.962 2181.32 220.829 L2181.32 247.741 Q2181.32 249.17 2182.02 249.615 Q2182.73 250.06 2185.79 250.06 L2187.32 250.06 L2187.32 251.536 Q2185.63 251.395 2179.54 251.395 Q2173.45 251.395 2171.79 251.536 L2171.79 250.06 L2173.31 250.06 Q2176.33 250.06 2177.06 249.638 Q2177.78 249.193 2177.78 247.741 L2177.78 222.89 Q2175.28 224.155 2171.48 224.155 Z" fill="#000000" fill-rule="evenodd" fill-opacity="1" /><path clip-path="url(#clip830)" d="M2195.23 263.059 Q2195.23 262.825 2195.84 262.24 Q2203.57 254.37 2203.57 239.543 Q2203.57 224.67 2196.15 217.151 Q2195.23 216.285 2195.23 216.027 Q2195.23 215.559 2195.7 215.559 Q2196.03 215.559 2197.18 216.519 Q2198.35 217.479 2200.11 219.681 Q2201.89 221.883 2203.2 224.576 Q2206.36 231.111 2206.36 239.543 Q2206.36 247.647 2203.34 254.182 Q2202.05 256.923 2200.25 259.218 Q2198.44 261.513 2197.25 262.521 Q2196.05 263.528 2195.7 263.528 Q2195.23 263.528 2195.23 263.059 Z" fill="#000000" fill-rule="evenodd" fill-opacity="1" /><path clip-path="url(#clip830)" d="M2211.37 222.555 Q2211.37 221.948 2211.42 221.768 Q2211.48 221.588 2211.75 221.309 L2218.19 214.128 Q2221.71 210.16 2221.71 206.7 Q2221.71 204.454 2220.53 202.847 Q2219.37 201.241 2217.22 201.241 Q2215.75 201.241 2214.5 202.142 Q2213.25 203.044 2212.68 204.651 Q2212.78 204.618 2213.12 204.618 Q2213.96 204.618 2214.42 205.143 Q2214.89 205.667 2214.89 206.372 Q2214.89 207.274 2214.3 207.717 Q2213.73 208.143 2213.16 208.143 Q2212.93 208.143 2212.62 208.094 Q2212.32 208.045 2211.84 207.586 Q2211.37 207.11 2211.37 206.274 Q2211.37 203.93 2213.14 202.06 Q2214.93 200.191 2217.65 200.191 Q2220.73 200.191 2222.75 202.028 Q2224.78 203.848 2224.78 206.7 Q2224.78 207.701 2224.47 208.619 Q2224.17 209.52 2223.76 210.225 Q2223.37 210.93 2222.29 212.062 Q2221.21 213.193 2220.34 213.996 Q2219.47 214.8 2217.52 216.505 L2213.96 219.965 L2220.01 219.965 Q2222.96 219.965 2223.19 219.702 Q2223.52 219.227 2223.93 216.718 L2224.78 216.718 L2223.83 222.555 L2211.37 222.555 Z" fill="#000000" fill-rule="evenodd" fill-opacity="1" /><polyline clip-path="url(#clip830)" style="stroke:#e26f46; stroke-linecap:butt; stroke-linejoin:round; stroke-width:4; stroke-opacity:1; fill:none" points="
  1732.1,294.912 1879.68,294.912 
  "/>
<path clip-path="url(#clip830)" d="M1938.34 278.807 L1937.38 287.098 Q1937.31 287.848 1937.19 288.082 Q1937.07 288.293 1936.7 288.293 Q1936.14 288.293 1936.14 287.731 Q1936.14 287.496 1936.23 286.864 Q1936.37 285.576 1936.37 284.264 Q1936.37 282.788 1936.09 281.875 Q1935.83 280.938 1935.08 280.259 Q1934.33 279.58 1932.95 279.298 Q1931.57 278.994 1929.37 278.994 L1923.04 278.994 Q1921.5 278.994 1921.12 279.275 Q1920.77 279.556 1920.44 280.868 L1917.38 293.047 L1921.73 293.047 Q1924.78 293.047 1925.97 292.157 Q1927.17 291.267 1927.92 288.433 Q1928.03 287.988 1928.08 287.824 Q1928.15 287.637 1928.27 287.543 Q1928.41 287.426 1928.64 287.426 Q1928.85 287.426 1928.99 287.567 Q1929.13 287.684 1929.18 287.824 L1929.23 287.965 Q1929.23 288.199 1929.09 288.738 L1926.44 299.137 Q1926.25 299.84 1926.14 300.004 Q1926.04 300.144 1925.71 300.144 Q1925.48 300.144 1925.32 299.98 Q1925.15 299.817 1925.15 299.559 Q1925.2 299.278 1925.29 299.044 Q1925.62 297.615 1925.62 296.701 Q1925.62 296.116 1925.5 295.764 Q1925.39 295.413 1924.99 295.109 Q1924.59 294.804 1923.77 294.664 Q1922.95 294.523 1921.64 294.523 L1917 294.523 L1914.03 306.468 L1913.82 307.569 Q1913.82 308.061 1914.07 308.249 Q1914.35 308.436 1915.36 308.53 Q1916.86 308.647 1917.84 308.647 Q1919.06 308.647 1919.2 308.694 Q1919.48 308.834 1919.48 309.209 Q1919.48 309.631 1919.3 309.865 Q1919.11 310.076 1918.95 310.099 Q1918.78 310.122 1918.48 310.122 L1911.33 309.982 L1905.01 310.122 Q1904.28 310.122 1904.28 309.537 Q1904.28 309.092 1904.47 308.904 Q1904.66 308.694 1904.87 308.67 Q1905.08 308.647 1905.62 308.647 Q1906.79 308.647 1907.49 308.577 Q1908.19 308.506 1908.64 308.413 Q1909.11 308.295 1909.34 307.968 Q1909.6 307.64 1909.72 307.359 Q1909.83 307.054 1910 306.375 L1916.32 281.008 Q1916.56 280.142 1916.56 279.861 Q1916.56 279.556 1916.35 279.369 Q1916.16 279.181 1915.64 279.111 Q1915.13 279.017 1914.71 279.017 Q1914.31 278.994 1913.44 278.994 Q1912.88 278.994 1912.64 278.971 Q1912.43 278.947 1912.27 278.83 Q1912.11 278.713 1912.11 278.455 Q1912.11 277.799 1912.39 277.659 Q1912.69 277.495 1913.53 277.495 L1937.05 277.495 Q1937.99 277.495 1938.2 277.706 Q1938.43 277.893 1938.34 278.807 Z" fill="#000000" fill-rule="evenodd" fill-opacity="1" /><path clip-path="url(#clip830)" d="M1934.81 298.13 Q1934.81 290.026 1937.83 283.491 Q1939.11 280.751 1940.92 278.455 Q1942.72 276.16 1943.92 275.153 Q1945.11 274.146 1945.44 274.146 Q1945.91 274.146 1945.93 274.614 Q1945.93 274.848 1945.3 275.434 Q1937.57 283.304 1937.59 298.13 Q1937.59 313.003 1945.11 320.569 Q1945.93 321.389 1945.93 321.646 Q1945.93 322.115 1945.44 322.115 Q1945.11 322.115 1943.96 321.154 Q1942.82 320.194 1941.04 317.992 Q1939.26 315.791 1937.97 313.097 Q1934.81 306.562 1934.81 298.13 Z" fill="#000000" fill-rule="evenodd" fill-opacity="1" /><path clip-path="url(#clip830)" d="M1977.11 292.087 Q1977.11 293.399 1976.29 294.148 Q1975.47 294.874 1974.54 294.874 Q1973.65 294.874 1973.18 294.359 Q1972.71 293.844 1972.71 293.188 Q1972.71 292.298 1973.36 291.525 Q1974.02 290.752 1975 290.588 Q1974.04 289.979 1972.61 289.979 Q1971.68 289.979 1970.86 290.471 Q1970.06 290.963 1969.57 291.595 Q1969.1 292.228 1968.68 293.141 Q1968.28 294.031 1968.12 294.57 Q1967.98 295.085 1967.86 295.647 L1966.22 302.206 Q1965.42 305.321 1965.42 306.422 Q1965.42 307.78 1966.08 308.694 Q1966.74 309.584 1968.05 309.584 Q1968.56 309.584 1969.15 309.443 Q1969.73 309.279 1970.48 308.858 Q1971.26 308.413 1971.94 307.757 Q1972.64 307.077 1973.32 305.93 Q1974 304.782 1974.44 303.306 Q1974.58 302.791 1975.05 302.791 Q1975.64 302.791 1975.64 303.26 Q1975.64 303.658 1975.31 304.501 Q1975 305.321 1974.32 306.398 Q1973.67 307.452 1972.8 308.413 Q1971.94 309.349 1970.65 310.005 Q1969.36 310.661 1967.95 310.661 Q1965.94 310.661 1964.6 309.584 Q1963.27 308.506 1962.78 307.007 Q1962.66 307.218 1962.5 307.499 Q1962.33 307.78 1961.84 308.413 Q1961.37 309.022 1960.83 309.49 Q1960.29 309.935 1959.45 310.286 Q1958.63 310.661 1957.74 310.661 Q1956.62 310.661 1955.61 310.333 Q1954.63 310.005 1953.92 309.256 Q1953.22 308.506 1953.22 307.476 Q1953.22 306.328 1953.99 305.532 Q1954.79 304.712 1955.87 304.712 Q1956.55 304.712 1957.09 305.11 Q1957.65 305.508 1957.65 306.375 Q1957.65 307.335 1956.99 308.061 Q1956.34 308.787 1955.4 308.975 Q1956.36 309.584 1957.79 309.584 Q1959.33 309.584 1960.55 308.225 Q1961.77 306.867 1962.36 304.595 Q1963.81 299.137 1964.37 296.701 Q1964.93 294.242 1964.93 293.188 Q1964.93 292.204 1964.67 291.525 Q1964.42 290.846 1963.97 290.541 Q1963.55 290.213 1963.15 290.096 Q1962.78 289.979 1962.36 289.979 Q1961.65 289.979 1960.86 290.26 Q1960.08 290.541 1959.15 291.197 Q1958.23 291.829 1957.37 293.141 Q1956.5 294.453 1955.91 296.256 Q1955.8 296.795 1955.28 296.795 Q1954.72 296.772 1954.72 296.303 Q1954.72 295.905 1955.02 295.085 Q1955.35 294.242 1956.01 293.188 Q1956.69 292.134 1957.55 291.197 Q1958.44 290.237 1959.73 289.581 Q1961.04 288.925 1962.45 288.925 Q1963.08 288.925 1963.69 289.066 Q1964.32 289.183 1965.07 289.534 Q1965.85 289.885 1966.52 290.658 Q1967.2 291.431 1967.63 292.556 Q1967.91 292.017 1968.28 291.502 Q1968.68 290.986 1969.29 290.354 Q1969.92 289.698 1970.79 289.323 Q1971.68 288.925 1972.66 288.925 Q1973.62 288.925 1974.56 289.183 Q1975.5 289.417 1976.29 290.19 Q1977.11 290.939 1977.11 292.087 Z" fill="#000000" fill-rule="evenodd" fill-opacity="1" /><path clip-path="url(#clip830)" d="M1980.38 321.646 Q1980.38 321.412 1980.99 320.826 Q1988.72 312.957 1988.72 298.13 Q1988.72 283.257 1981.29 275.738 Q1980.38 274.872 1980.38 274.614 Q1980.38 274.146 1980.85 274.146 Q1981.18 274.146 1982.32 275.106 Q1983.5 276.066 1985.25 278.268 Q1987.03 280.47 1988.34 283.163 Q1991.51 289.698 1991.51 298.13 Q1991.51 306.234 1988.48 312.769 Q1987.2 315.51 1985.39 317.805 Q1983.59 320.1 1982.39 321.108 Q1981.2 322.115 1980.85 322.115 Q1980.38 322.115 1980.38 321.646 Z" fill="#000000" fill-rule="evenodd" fill-opacity="1" /><path clip-path="url(#clip830)" d="M2012.1 302.838 Q2012.15 302.252 2013.06 302.252 L2042.46 302.252 Q2043.84 302.252 2043.86 302.791 Q2043.86 303.377 2042.55 303.353 L2013.39 303.353 Q2012.1 303.377 2012.1 302.838 M2012.1 293.469 Q2012.1 292.883 2013.11 292.907 L2042.41 292.907 Q2043.84 292.907 2043.86 293.469 Q2043.86 294.008 2042.64 294.008 L2013.06 294.008 Q2012.1 294.008 2012.1 293.469 Z" fill="#000000" fill-rule="evenodd" fill-opacity="1" /><path clip-path="url(#clip830)" d="M2062.35 310.122 Q2062.35 309.256 2062.42 308.998 Q2062.52 308.74 2062.89 308.342 L2072.1 298.083 Q2077.13 292.415 2077.13 287.473 Q2077.13 284.264 2075.45 281.969 Q2073.78 279.673 2070.71 279.673 Q2068.61 279.673 2066.83 280.961 Q2065.05 282.25 2064.23 284.545 Q2064.37 284.498 2064.86 284.498 Q2066.05 284.498 2066.71 285.248 Q2067.39 285.997 2067.39 287.004 Q2067.39 288.293 2066.54 288.925 Q2065.72 289.534 2064.91 289.534 Q2064.58 289.534 2064.13 289.464 Q2063.71 289.394 2063.03 288.738 Q2062.35 288.058 2062.35 286.864 Q2062.35 283.514 2064.88 280.844 Q2067.43 278.174 2071.32 278.174 Q2075.73 278.174 2078.61 280.797 Q2081.51 283.397 2081.51 287.473 Q2081.51 288.902 2081.07 290.213 Q2080.65 291.502 2080.06 292.509 Q2079.5 293.516 2077.95 295.132 Q2076.41 296.748 2075.16 297.896 Q2073.92 299.044 2071.14 301.48 L2066.05 306.422 L2074.7 306.422 Q2078.91 306.422 2079.24 306.047 Q2079.71 305.368 2080.29 301.784 L2081.51 301.784 L2080.15 310.122 L2062.35 310.122 Z" fill="#000000" fill-rule="evenodd" fill-opacity="1" /><path clip-path="url(#clip830)" d="M2103.16 269.892 Q2103.16 270.81 2102.59 271.335 Q2102.02 271.843 2101.36 271.843 Q2100.74 271.843 2100.41 271.482 Q2100.08 271.122 2100.08 270.663 Q2100.08 270.039 2100.54 269.498 Q2101 268.957 2101.69 268.843 Q2101.02 268.416 2100.02 268.416 Q2099.36 268.416 2098.79 268.761 Q2098.23 269.105 2097.89 269.548 Q2097.56 269.99 2097.26 270.63 Q2096.98 271.253 2096.87 271.63 Q2096.77 271.991 2096.69 272.384 L2095.54 276.975 Q2094.98 279.155 2094.98 279.926 Q2094.98 280.877 2095.44 281.516 Q2095.9 282.14 2096.82 282.14 Q2097.18 282.14 2097.59 282.041 Q2098 281.926 2098.52 281.631 Q2099.07 281.32 2099.54 280.861 Q2100.03 280.385 2100.51 279.582 Q2100.98 278.778 2101.3 277.745 Q2101.39 277.385 2101.72 277.385 Q2102.13 277.385 2102.13 277.713 Q2102.13 277.991 2101.9 278.582 Q2101.69 279.155 2101.21 279.91 Q2100.75 280.647 2100.15 281.32 Q2099.54 281.976 2098.64 282.435 Q2097.74 282.894 2096.75 282.894 Q2095.34 282.894 2094.41 282.14 Q2093.47 281.385 2093.13 280.336 Q2093.05 280.484 2092.93 280.68 Q2092.82 280.877 2092.47 281.32 Q2092.15 281.746 2091.77 282.074 Q2091.39 282.385 2090.8 282.631 Q2090.23 282.894 2089.61 282.894 Q2088.82 282.894 2088.11 282.664 Q2087.42 282.435 2086.93 281.91 Q2086.44 281.385 2086.44 280.664 Q2086.44 279.86 2086.98 279.303 Q2087.54 278.729 2088.29 278.729 Q2088.77 278.729 2089.15 279.008 Q2089.54 279.287 2089.54 279.893 Q2089.54 280.566 2089.08 281.074 Q2088.62 281.582 2087.97 281.713 Q2088.64 282.14 2089.64 282.14 Q2090.72 282.14 2091.57 281.189 Q2092.43 280.238 2092.84 278.647 Q2093.85 274.827 2094.25 273.122 Q2094.64 271.4 2094.64 270.663 Q2094.64 269.974 2094.46 269.498 Q2094.28 269.023 2093.97 268.81 Q2093.67 268.58 2093.39 268.498 Q2093.13 268.416 2092.84 268.416 Q2092.34 268.416 2091.79 268.613 Q2091.24 268.81 2090.59 269.269 Q2089.95 269.712 2089.34 270.63 Q2088.74 271.548 2088.33 272.81 Q2088.24 273.187 2087.88 273.187 Q2087.49 273.171 2087.49 272.843 Q2087.49 272.564 2087.7 271.991 Q2087.93 271.4 2088.39 270.663 Q2088.87 269.925 2089.47 269.269 Q2090.1 268.597 2091 268.138 Q2091.92 267.678 2092.9 267.678 Q2093.34 267.678 2093.77 267.777 Q2094.21 267.859 2094.74 268.105 Q2095.28 268.351 2095.75 268.892 Q2096.23 269.433 2096.52 270.22 Q2096.72 269.843 2096.98 269.482 Q2097.26 269.121 2097.69 268.679 Q2098.13 268.22 2098.74 267.957 Q2099.36 267.678 2100.05 267.678 Q2100.72 267.678 2101.38 267.859 Q2102.03 268.023 2102.59 268.564 Q2103.16 269.089 2103.16 269.892 Z" fill="#000000" fill-rule="evenodd" fill-opacity="1" /></svg>
